<?xml version="1.0" standalone="no"?>
<!DOCTYPE svg PUBLIC "-//W3C//DTD SVG 1.1//EN" "http://www.w3.org/Graphics/SVG/1.1/DTD/svg11.dtd" >
<svg xmlns="http://www.w3.org/2000/svg">
<metadata>
Created by FontForge 20120731 at Thu Oct 20 13:21:31 2016
 By admin
</metadata>
<defs>
<font id="iconfont" horiz-adv-x="1024" >
  <font-face 
    font-family="iconfont"
    font-weight="500"
    font-stretch="normal"
    units-per-em="1024"
    panose-1="2 0 6 3 0 0 0 0 0 0"
    ascent="896"
    descent="-128"
    x-height="792"
    bbox="-0.245901 -212 1113 897"
    underline-thickness="50"
    underline-position="-100"
    unicode-range="U+0078-E639"
  />
<missing-glyph horiz-adv-x="374" 
d="M34 0v682h272v-682h-272zM68 34h204v614h-204v-614z" />
    <glyph glyph-name=".notdef" horiz-adv-x="374" 
d="M34 0v682h272v-682h-272zM68 34h204v614h-204v-614z" />
    <glyph glyph-name=".null" horiz-adv-x="0" 
 />
    <glyph glyph-name="nonmarkingreturn" horiz-adv-x="341" 
 />
    <glyph glyph-name="x" unicode="x" horiz-adv-x="1001" 
d="M281 543q-27 -1 -53 -1h-83q-18 0 -36.5 -6t-32.5 -18.5t-23 -32t-9 -45.5v-76h912v41q0 16 -0.5 30t-0.5 18q0 13 -5 29t-17 29.5t-31.5 22.5t-49.5 9h-133v-97h-438v97zM955 310v-52q0 -23 0.5 -52t0.5 -58t-10.5 -47.5t-26 -30t-33 -16t-31.5 -4.5q-14 -1 -29.5 -0.5
t-29.5 0.5h-32l-45 128h-439l-44 -128h-29h-34q-20 0 -45 1q-25 0 -41 9.5t-25.5 23t-13.5 29.5t-4 30v167h911zM163 247q-12 0 -21 -8.5t-9 -21.5t9 -21.5t21 -8.5q13 0 22 8.5t9 21.5t-9 21.5t-22 8.5zM316 123q-8 -26 -14 -48q-5 -19 -10.5 -37t-7.5 -25t-3 -15t1 -14.5
t9.5 -10.5t21.5 -4h37h67h81h80h64h36q23 0 34 12t2 38q-5 13 -9.5 30.5t-9.5 34.5q-5 19 -11 39h-368zM336 498v228q0 11 2.5 23t10 21.5t20.5 15.5t34 6h188q31 0 51.5 -14.5t20.5 -52.5v-227h-327z" />
    <glyph glyph-name="uniE600" unicode="&#xe600;" 
d="M749 178l37 -303l-274 130l-274 -130l37 303l-207 222l298 58l146 267l146 -267l298 -58zM631 420l-119 222l-119 -222l-242 -47l168 -185l-30 -251l223 108l223 -108l-30 251l168 185z" />
    <glyph glyph-name="uniE601" unicode="&#xe601;" 
d="M395.5 -135q-77.5 0 -132 42.5t-54.5 102.5t54.5 102.5t132 42.5t132 -42.5t54.5 -102.5t-54.5 -102.5t-132 -42.5zM395.5 117q-61.5 0 -105.5 -31.5t-44 -76t44 -76t105.5 -31.5t105 31.5t43.5 76t-43.5 76t-105 31.5zM570 3l-38 75v639q0 6 6.5 11t14.5 7q7 1 14 -2
t10 -9q19 -44 40.5 -75.5t47.5 -52t41 -29.5t41 -22q20 -9 29 -14.5t20 -16t16 -23.5q8 -25 -4.5 -65t-50.5 -111l-33 18q63 116 53 146q-1 3 -3 5.5t-5 4.5t-5.5 4t-7.5 5l-9 4q-4 2 -10.5 5t-10.5 5q-22 11 -35 18t-36 22.5t-44.5 37.5t-40.5 51v-638z" />
    <glyph glyph-name="uniE602" unicode="&#xe602;" 
d="M426.5 -27q-73.5 0 -125.5 40t-52 97t52 97.5t125.5 40.5t125.5 -40.5t52 -97.5t-52 -97t-125.5 -40zM426.5 213q-58.5 0 -100 -30t-41.5 -72.5t41.5 -72.5t100 -30t100 30t41.5 72.5t-41.5 72.5t-100 30zM600 104l-35 71v608q0 6 4.5 11t10.5 6q15 3 21 -10
q18 -41 39 -71.5t45 -50t38.5 -28t38.5 -20.5q18 -9 27 -14t19.5 -15t14.5 -23q8 -24 -4 -61.5t-48 -105.5l-32 17q60 110 50 139q-2 8 -11.5 14t-32.5 17q-26 13 -44 23.5t-47 37t-54 62.5v-607z" />
    <glyph glyph-name="uniE603" unicode="&#xe603;" 
d="M889 418q0 3 -1 6q-18 125 -107 215q-55 55 -125 83t-144 28t-144 -28.5t-125 -82.5q-89 -90 -107 -215q-1 -3 -1 -6v0q0 -10 7.5 -17.5t17.5 -7.5t17 7.5t7 17.5q16 108 94 186q97 97 234 97t234 -97q78 -78 93 -186h1q0 -10 7 -17.5t17 -7.5t17.5 7.5t7.5 17.5v0z
M265 393q-10 0 -17 -7.5t-7 -17.5v-9q-7 1 -13 1q-68 0 -115.5 -47.5t-47.5 -115.5t47.5 -115.5t115.5 -47.5h14q6 -16 23 -16q10 0 17.5 7t7.5 17v4v55v192v55v20q0 10 -7.5 17.5t-17.5 7.5zM759 393q10 0 17 -7.5t7 -17.5v-9q7 1 13 1q67 0 115 -48t48 -115.5t-47.5 -115
t-115.5 -47.5h-14q-6 -16 -23 -16q-10 0 -17.5 7t-7.5 17v4v55v192v55v20q0 10 7.5 17.5t17.5 7.5z" />
    <glyph glyph-name="uniE604" unicode="&#xe604;" 
d="M962 532l-260 298v1h-77v-577q-49 41 -118 66t-143 25q-128 0 -213.5 -68.5t-85.5 -155.5q0 -83 83 -135t216 -52q88 0 164.5 23t124 66.5t47.5 97.5l1 549l186 -213zM364 9q-94 0 -159.5 32.5t-65.5 79.5q0 50 68 100t157 50t156.5 -50t67.5 -100q0 -47 -65 -79.5
t-159 -32.5z" />
    <glyph glyph-name="uniE605" unicode="&#xe605;" 
d="M809 12h-601q-29 0 -49 21t-18 50l35 597q1 29 22.5 48.5t50.5 19.5h516q30 0 51 -19.5t23 -48.5l37 -597q2 -29 -17.5 -50t-49.5 -21zM249 713q-15 0 -26.5 -10t-11.5 -25l-35 -597q-1 -14 8.5 -24t23.5 -10h601q14 0 23.5 10t8.5 24l-37 597q-1 14 -12 24.5t-26 10.5
h-517zM508.5 459q-67.5 0 -115.5 48t-48 115q0 8 5 13t12.5 5t12.5 -5t5 -13q0 -53 37.5 -90.5t91 -37.5t91 37.5t37.5 90.5q0 8 5 13t12.5 5t12.5 -5t5 -13q0 -67 -48 -115t-115.5 -48z" />
    <glyph glyph-name="uniE606" unicode="&#xe606;" 
d="M980 40l-40 709q-2 42 -34.5 71.5t-76.5 29.5h-632q-43 0 -75.5 -29.5t-35.5 -71.5l-40 -709q-3 -51 29.5 -88t81.5 -37h712q49 0 81.5 37t29.5 88zM846 -23h-665q-33 0 -54.5 24.5t-19.5 58.5l33 662q1 28 23 48t51 20h599q29 0 51 -20t23 -48l33 -662
q2 -34 -19.5 -58.5t-54.5 -24.5zM772 623l1 1q0 11 -8 19t-19.5 8t-19.5 -8t-8 -19q0 -2 1 -3q-5 -86 -64.5 -145t-142.5 -59t-143 59.5t-64 145.5v2q0 11 -8 18.5t-19 7.5t-19 -7.5t-8 -18.5v-1q3 -109 79 -185t182 -76t181.5 76t79.5 185h-1z" />
    <glyph glyph-name="uniE607" unicode="&#xe607;" 
d="M836.5 520q-5.5 16 -21.5 14q-8 -2 -16 -2q-46 0 -88 37q-35 31 -71 89l-3 6q-12 20 -21 32t-26 29.5t-39 26.5t-49 9q-52 0 -117 -39q-13 -8 -9 -23l115 -428q-40 22 -93 22q-31 0 -63 -9q-74 -19 -116 -72q-45 -55 -29 -114q12 -45 57 -72q42 -25 98 -25q32 0 63 9
q74 19 116 72q45 55 30 114l-132 492q13 -1 25 -8t23.5 -22.5t17.5 -27.5l20 -36q12 -25 19 -36q28 -49 67 -76q44 -31 98 -31q64 0 136 45q14 8 8.5 24zM493 108q-34 -42 -95 -59q-27 -7 -53 -7q-44 0 -76 18.5t-40 48.5q-10 39 22 78q34 42 94 58q27 7 53 7q44 0 76 -18.5
t40 -48.5q10 -38 -21 -77zM692 492q-80 0 -129 86q-7 11 -19 35q-14 26 -22 40.5t-23 33.5t-31 28q18 6 34 6q34 0 61 -26q16 -15 38 -52q3 -4 4 -7q39 -63 79 -98q29 -25 61 -37q-28 -9 -53 -9z" />
    <glyph glyph-name="uniE608" unicode="&#xe608;" 
d="M512 824q-98 0 -188 -41.5t-156 -110.5t-106.5 -165.5t-42.5 -201.5q0 -8 6 -15q4 -4 10 -5v-274q0 -8 6 -14t15 -6h7v-26q0 -9 6 -15t15 -6h139q9 0 15 6t6 15v377q0 8 -6 14t-15 6h-91q22 152 131 253.5t249 101.5t249 -101.5t131 -253.5h-91q-9 0 -15 -6t-6 -14v-377
q0 -9 6 -15t15 -6h139q9 0 15 6t6 15v26h7q9 0 15 6t6 14v274q6 1 10 5q6 7 6 15q-2 105 -42.5 201.5t-106.5 165.5t-156 110.5t-188 41.5z" />
    <glyph glyph-name="uniE609" unicode="&#xe609;" 
d="M889 418q0 3 -1 6q-18 125 -107 215q-55 55 -125 83t-144 28t-144 -28.5t-125 -82.5q-89 -90 -107 -215q-1 -3 -1 -6v0q0 -10 7.5 -17.5t17.5 -7.5t17 7.5t7 17.5q16 108 94 186q97 97 234 97t234 -97q78 -78 93 -186h1q0 -10 7 -17.5t17 -7.5t17.5 7.5t7.5 17.5v0z
M265 393q-10 0 -17 -7.5t-7 -17.5v-9q-7 1 -13 1q-68 0 -115.5 -47.5t-47.5 -115.5t47.5 -115.5t115.5 -47.5h14q6 -16 23 -16q10 0 17.5 7t7.5 17v4v55v192v55v20q0 10 -7.5 17.5t-17.5 7.5zM759 393q10 0 17 -7.5t7 -17.5v-9q7 1 13 1q67 0 115 -48t48 -115.5t-47.5 -115
t-115.5 -47.5h-14q-6 -16 -23 -16q-10 0 -17.5 7t-7.5 17v4v55v192v55v20q0 10 7.5 17.5t17.5 7.5z" />
    <glyph glyph-name="uniE60A" unicode="&#xe60a;" 
d="M894 554l-43 43l-339 -339l-339 339l-43 -43l382 -383z" />
    <glyph glyph-name="uniE60B" unicode="&#xe60b;" 
d="M851 338l-627 461q-19 19 -45 7q-13 -5 -19 -16t-6 -23v-928q0 -30 25 -38q13 -13 19 -13q20 0 26 6l634 468q19 9 19 38q-13 26 -26 38z" />
    <glyph glyph-name="uniE60C" unicode="&#xe60c;" 
d="M957 384l-880 -508v1016z" />
    <glyph glyph-name="uniE60D" unicode="&#xe60d;" 
d="M511 0q-80 -49 -140.5 -79t-108.5 -40.5t-80.5 -7.5t-56 31.5t-37 64.5t-21.5 104t-10 136.5t-2 174.5t2 174.5t10 136.5t21.5 104t37 64.5t56 31.5t80.5 -7.5t108.5 -40.5t140.5 -79q97 -55 164.5 -96t126 -83.5t92.5 -74t53 -67.5t19 -64t-19.5 -64t-53 -67.5
t-92.5 -73.5t-126 -82.5t-164 -95.5z" />
    <glyph glyph-name="uniE60E" unicode="&#xe60e;" horiz-adv-x="1536" 
d="M507 888l8 -6l567 -443q31 -25 31 -63t-31 -62l-575 -451q-15 -9 -32 -9q-24 0 -40.5 16t-16.5 39v934q0 23 16.5 38.5t40.5 15.5q18 0 32 -9z" />
    <glyph glyph-name="uniE60F" unicode="&#xe60f;" 
d="M357 740l264 -439l-255 -440l36 -21l267 462v0v0l-275 459z" />
    <glyph glyph-name="uniE610" unicode="&#xe610;" 
d="M283 -193q14 0 24 10l458 459q10 10 10 24t-10 24l-458 459q-10 10 -24 10t-24 -10t-10 -24.5t10 -24.5l434 -434l-434 -434q-10 -10 -10 -24.5t10 -24.5t24 -10z" />
    <glyph glyph-name="uniE611" unicode="&#xe611;" 
d="M681 396v-1v0l-265 -458l-17 10l259 448l-259 449l17 10l264 -457z" />
    <glyph glyph-name="uniE612" unicode="&#xe612;" 
d="M726 421q9 -9 9 -21.5t-9 -20.5l-385 -386q-9 -8 -21.5 -8t-21.5 8q-9 9 -9 21.5t9 21.5l385 386q9 8 21.5 8t21.5 -9v0zM299 807q9 9 21.5 9t21.5 -9l385 -385q9 -9 9 -21.5t-9 -21.5t-21.5 -9t-21.5 9l-385 385q-9 9 -9 21.5t9 21.5v0z" />
    <glyph glyph-name="uniE613" unicode="&#xe613;" 
d="M123 -149v898l778 -449zM180 651v-702l607 351zM180 651z" />
    <glyph glyph-name="uniE614" unicode="&#xe614;" 
d="M123 -65v898l778 -449zM180 735v-702l607 351zM180 735z" />
    <glyph glyph-name="uniE615" unicode="&#xe615;" 
d="M764 -96l-517 477l516 478v-197l-318 -280l318 -279z" />
    <glyph glyph-name="uniE616" unicode="&#xe616;" 
d="M756 80l-340 294l340 294l12 152l-515 -446l515 -446z" />
    <glyph glyph-name="uniE617" unicode="&#xe617;" 
d="M972 -51l-2 8l-1 3l-1 3l-1 1l-1 3l-1 2l-2 4l-1 2l-1 2l-1 1l-1 2h-1l-1 2l-1 1l-1 2l-1 1l-1 1l-1 2l-1 1l-1 1v2l-1 1l-1 1l-1 1l-1 1h-1l-1 1l-1 1l-1 1l-1 1l-1 1l-2 2l-1 1l-1 1l-1 1l-1 1l-1 1l-1 1l-1 1l-2 2l-1 1l-1 1h-1l-1 1l-2 1l-2 2l-1 1l-1 1l-1 1l-1 1
l-1 1l-1 1l-1 1l-1 1v1l-2 2l-1 1l-1 1h-1l-1 1l-1 1l-1 1l-1 1l-2 2l-1 1l-1 1l-1 1l-1 1l-2 1l-1 1l-1 1l-1 1l-1 1l-1 2l-1 1h-1l-1 1l-1 1l-1 1l-1 1l-1 1l-2 1l-1 1l-1 1l-1 1l-1 1l-1 1l-1 1v1l-1 1l-1 1l-1 1l-2 2h-2l-1 1l-1 1l-1 1l-1 1l-2 2l-1 1l-1 1l-1 1l-1 1
l-1 1l-1 1l-1 1l-1 1l-1 1l-2 2l-1 1l-1 1l-1 1l-1 1l-1 1l-1 1l-2 2l-1 1l-1 1l-2 1h-1l-1 1l-1 1l-1 1l-2 2l-1 1l-1 1l-1 1l-1 1l-1 1l-1 1l-1 1l-1 1l-1 1l-2 2l-1 1h-1l-1 1v1l-1 1l-1 1l-1 1l-2 2l-1 1l-1 1l-1 1l-1 1l-1 1l-1 1l-1 1l-1 1l-1 1h-1l-1 1l-1 1l-1 1
l-1 1l-1 1l-1 1l-2 1l-1 1l-1 1l-1 1l-1 1l-1 1l-1 1l-1 1l-1 1l-1 1v1l-2 1h-1l-1 1l-1 1l-1 1l-1 1l-1 1l-1 1l-1 1l-2 2l-1 1l-1 1l-1 1l-1 1l-1 1l-1 1l-1 1l-2 2h-1l-1 1l-1 1l-1 1l-1 1l-1 1l-1 1l-1 1l-1 1l-1 1l-1 1l-1 1l-1 1h-1l-1 1l-1 1l-1 1l-1 1l-1 1l-1 1
l-1 1v2l1 2l1 1l1 1l1 2l1 1l1 1l1 1l1 1l1 2l1 1l1 2l1 1l1 2l1 1l1 2l1 1l1 3l1 1l2 4l1 1l1 2l1 2l1 1l1 2l1 1l1 2l2 3l1 1l5 10l1 2l1 1l1 2l1 2l2 4l1 3l3 5l1 3l1 2l1 3l1 2l1 3l1 2l1 2v3l1 2l1 3l2 6l1 2l1 4l2 6l1 4l1 2l1 4l1 4l1 4l2 9l1 6l1 7l2 14l1 7l1 11
l1 16v24l-1 18l-1 10l-1 8l-1 6l-1 6l-1 9l-1 5l-1 5l-1 4l-1 4l-1 4l-1 4l-1 3l-1 4l-1 2l-1 3l-1 4l-2 6l-1 2l-1 3l-1 2l-1 3l-1 3l-1 2v2l-1 2l-1 2l-1 3l-2 4l-1 3l-4 7l-1 2l-1 2l-1 2l-1 3l-1 1l-6 11l-1 2l-1 1l-2 4l-1 1l-1 1l-2 4l-1 1l-2 4l-1 1l-1 2v1l-1 2
l-1 1l-1 1l-1 1l-1 2l-1 1l-1 2l-1 1l-1 2l-1 1l-1 1l-1 2l-1 1l-1 1l-1 1h-1l-1 2l-2 2l-1 2l-1 1l-1 1l-1 2l-1 1l-1 1l-1 1l-2 3l-1 1l-1 1l-1 1l-1 2l-2 2l-1 1l-1 1l-1 1l-1 1v2l-1 1l-1 1l-1 1h-1l-1 1l-1 1l-1 1l-1 1l-1 1l-1 1l-1 1l-1 1l-1 1l-1 1l-1 1l-1 1l-1 1
l-1 1l-1 1l-2 2h-1l-1 1l-1 1l-1 1v1l-1 1l-1 1l-1 1l-1 1l-2 1l-1 1l-1 1l-1 1l-1 1l-1 1l-1 1l-2 1h-1l-2 2l-1 1l-2 1l-1 1l-1 1l-1 1l-2 1l-1 1l-1 1l-2 1l-1 1l-1 1l-1 1l-2 1l-1 1l-2 1h-1l-1 1l-2 1l-1 1h-2v2l-2 1l-1 1l-2 1l-1 1l-1 1l-2 1l-1 1l-2 1l-2 1l-1 1h-2
l-1 1l-1 1l-2 1l-1 1l-4 2l-1 1l-2 1l-2 1l-2 1l-1 1l-2 1l-2 1l-2 1l-2 1l-1 1l-2 1h-2l-2 1l-1 1l-2 1l-2 1l-3 1l-2 1l-4 2l-2 1l-2 1l-3 1l-2 1l-2 1l-3 1l-2 1l-2 1h-2l-2 1l-3 1l-2 1l-3 1l-3 1l-2 1l-3 1l-6 2l-3 1l-3 1l-3 1l-3 1l-4 1l-4 1l-3 1l-8 1l-5 1l-3 1
l-5 1l-5 1l-5 1l-6 1l-6 1l-6 1l-8 1l-11 1h-76l-11 -1l-8 -1l-7 -1l-5 -1l-6 -1l-5 -1l-5 -1l-5 -1l-4 -1l-4 -1l-4 -1h-3l-4 -1l-4 -1l-3 -1l-4 -1l-3 -1l-3 -1l-4 -1l-5 -2l-2 -1l-3 -1l-3 -1l-3 -1l-2 -1l-3 -1l-2 -1h-3l-2 -1l-2 -1l-2 -1l-2 -1l-2 -1l-2 -1l-3 -1
l-2 -1l-2 -1l-2 -1l-2 -1l-2 -1l-3 -1l-2 -1l-1 -1l-2 -1h-2l-2 -1l-1 -1l-2 -1l-2 -1l-2 -1l-2 -1l-1 -1l-2 -1l-2 -1l-2 -1l-1 -1l-2 -1l-2 -1l-1 -1l-2 -1l-2 -1l-1 -1l-2 -1h-1l-2 -1v-1l-2 -1l-1 -1l-2 -1l-1 -1l-2 -1l-1 -1l-2 -1l-1 -1l-1 -1l-2 -1l-1 -1l-1 -1
l-1 -1l-2 -1h-1l-1 -1l-2 -1l-2 -1l-1 -1l-2 -1l-1 -1l-1 -1l-1 -1l-1 -1l-1 -1l-1 -1l-1 -1l-2 -1l-1 -1l-1 -1h-1l-1 -1l-2 -1l-1 -1l-1 -1l-1 -1l-1 -1l-1 -1l-1 -1l-2 -1l-1 -1l-1 -1l-1 -1l-1 -1l-1 -1l-1 -1l-1 -1l-1 -1h-1l-1 -1l-1 -1v-1l-1 -1l-1 -1l-1 -1l-1 -1
l-1 -1l-1 -1l-1 -1l-1 -1l-1 -1l-1 -1l-1 -1l-1 -1l-1 -1h-1l-2 -2l-1 -2l-1 -1l-1 -1l-1 -1l-1 -1l-1 -1l-1 -1l-1 -2l-1 -1l-1 -1l-1 -1l-1 -1l-1 -1l-1 -1l-1 -1l-1 -1l-1 -2v-1l-1 -2l-1 -1l-1 -2l-1 -1l-1 -1l-1 -2l-1 -1h-1l-1 -1l-1 -2l-1 -1l-1 -1l-1 -2l-1 -1
l-1 -1l-1 -2l-1 -1l-1 -2l-1 -1l-1 -1l-1 -1l-1 -2l-1 -1l-1 -2l-1 -2l-1 -1l-1 -2l-1 -2l-1 -1l-1 -2l-1 -1v-1l-1 -2l-2 -4l-1 -1l-3 -6l-1 -2l-2 -3l-1 -2l-2 -4l-1 -2l-2 -4l-1 -2l-1 -2l-1 -2l-1 -2l-1 -2l-1 -3l-1 -2l-1 -3l-2 -3l-1 -3l-1 -2l-1 -3l-1 -3l-1 -2v-3
l-1 -3l-1 -3l-1 -3l-1 -3l-1 -3l-1 -3l-1 -4l-2 -8l-1 -3l-1 -4l-2 -10l-1 -5l-1 -6l-1 -5l-1 -8l-1 -9v-71l1 -10l1 -6l1 -7l1 -5l1 -5l1 -5l1 -5l1 -3l1 -5l1 -4l1 -3l1 -3l1 -3l1 -4l1 -3l1 -3l1 -2l1 -3v-3l1 -3l1 -3l1 -3l1 -1l1 -3l1 -3l1 -2l1 -3l1 -2l1 -2l1 -2
l1 -2l1 -2l1 -2l1 -3l2 -4l1 -2l2 -3l1 -2l2 -4l1 -2l1 -2l1 -1l1 -2l1 -1l1 -2l1 -1l1 -2l1 -1l1 -2v-2l1 -1l1 -2l1 -2l1 -1l1 -1l1 -1l2 -4l1 -1l1 -2l1 -1l1 -2l1 -1l1 -2l1 -1l1 -1l1 -1l1 -1l1 -2l1 -1l1 -1l1 -2l1 -1l1 -1l1 -2l1 -1l1 -1l1 -2l1 -1l1 -1l1 -1v-1
l1 -2l1 -1l1 -1l1 -1l1 -2l1 -1l1 -1l1 -1l1 -1l1 -2l1 -1h1l1 -1l1 -1l1 -1l1 -1l1 -1l1 -1l1 -2l1 -1l1 -1l1 -1l1 -1l1 -1l1 -1l1 -1l1 -1l1 -1l1 -1h1l2 -1l1 -1l1 -1l1 -1v-1l1 -1l1 -1l1 -1l1 -1l1 -1l1 -1l2 -1l1 -1l1 -1l1 -1l1 -1l1 -1l1 -1h1l2 -1l1 -1l1 -1l1 -1
l1 -1l2 -1l1 -1l1 -1l1 -1l2 -1l1 -1l1 -1l1 -1l2 -1l1 -1l1 -1l1 -1l1 -1h1l2 -1l1 -1l1 -1l1 -1l1 -1l2 -1l1 -1l2 -1l1 -1l2 -1l1 -1l1 -1l2 -1l1 -1l2 -1l2 -1l1 -1l2 -1h1l2 -1l1 -1l1 -1l2 -1l1 -1l2 -1l2 -1l2 -1l1 -1l2 -1l2 -1l2 -1l2 -1l1 -1l2 -1l4 -2l2 -1l2 -1
h2l1 -1l2 -1l2 -1l2 -1l2 -1l3 -1l2 -1l2 -1l3 -1l4 -1l2 -1l2 -1l2 -1l3 -1l1 -1l3 -1l3 -1l2 -1h3l3 -1l3 -1l3 -1l6 -2l3 -1l2 -1l4 -1l3 -1l4 -1l4 -1l4 -1l4 -1l4 -1l4 -1l4 -1l5 -1l5 -1h6l6 -1l6 -1l8 -1l10 -1l12 -1h54l12 1l10 1l8 1l7 1l5 1h5l5 1l5 1l5 1l5 1
l4 1l3 1l4 1l4 1l3 1l4 1l3 1l4 1l3 1l3 1l3 1l2 1l3 1l3 1l3 1h2l3 1h1l1 -1h1l1 -1l1 -1l1 -1l1 -1l1 -1l1 -2l1 -1l1 -1l1 -1l1 -1l1 -1l1 -1l1 -1l1 -1l2 -2v-1h1l1 -1l1 -1l1 -1l1 -1l1 -1l2 -2l1 -1l1 -1l1 -1l1 -1l1 -1l1 -1l1 -1l1 -1l1 -1l1 -1l2 -1h1l1 -1l1 -1
l1 -1l1 -1l1 -1l1 -1l1 -1l1 -1l1 -1l1 -1l1 -1l1 -1l2 -2l1 -1l1 -1l1 -1l1 -1l1 -1l1 -1h1l2 -1l1 -1l2 -2l1 -1l1 -1l1 -1l1 -1l1 -1l1 -1v-1l2 -2l1 -1l2 -1l1 -1l1 -1l1 -1h1l1 -1l1 -1l1 -1l2 -2l1 -1l1 -1l1 -1l1 -1l1 -1l1 -1l1 -1l1 -1l1 -1l1 -1l1 -1l1 -1l1 -1h1
l1 -1l1 -1l2 -2l1 -1l1 -1l1 -1l1 -1l1 -1v-1l1 -1l1 -1l2 -1l1 -1l1 -1l1 -1l1 -1h1l1 -1l1 -1l1 -1l1 -1l1 -1l1 -1l1 -1l1 -1l1 -1l1 -1l1 -1l1 -1l1 -1l2 -2l1 -1l1 -1l1 -1l2 -1h1l1 -1l1 -1l1 -1l1 -1l1 -1l1 -1l1 -1l1 -1v-1l1 -1l1 -1l1 -1l1 -1l2 -2l1 -1l1 -1h1
l1 -1l2 -1l1 -1l1 -1l2 -2l2 -1l1 -1l1 -1l1 -2l1 -1l1 -1l1 -1l1 -1l1 -1l1 -1l1 -1h1l1 -1l1 -1l1 -1l1 -1l1 -1l1 -1l1 -1l1 -1v-1l2 -1l1 -1l1 -1l1 -1l1 -1l1 -1l1 -1l1 -1l1 -1h1l1 -1l1 -1l1 -1l1 -1l2 -2l1 -1l1 -1l1 -1l1 -1l1 -1l1 -1l1 -1l1 -1l2 -1l1 -1l1 -1
l1 -1h1l1 -1l1 -1l1 -1l1 -1l1 -1l1 -2l1 -1l2 -1l1 -1l1 -1l2 -1l1 -1l2 -1l1 -1l2 -1l1 -1l2 -1h1l2 -1l2 -1l2 -1l2 -1l4 -2l2 -1l2 -1l3 -1l3 -1l3 -1l4 -1l4 -1h4h41l5 1l4 1l3 1l3 1l3 1l3 1l3 1l2 1l4 2l3 1h1l2 1l2 1l1 1l1 1l2 1l1 1l2 1l1 1l2 1l1 1l1 1l2 1l1 1
l1 1l2 2l2 1l1 1h1l1 1l1 1l1 1l1 1l1 1l1 2l1 1l1 1l1 1l1 1l1 2l1 1v1l1 2l1 1l1 1l1 1l1 2l1 1l1 2l4 8l1 1l1 3l1 2l1 3l1 3l1 4l1 3l1 5v37zM705 383l-1 -9l-1 -7l-2 -11l-1 -5l-1 -4l-1 -5l-1 -3v-3l-1 -4l-1 -3l-1 -4l-1 -2l-1 -3l-1 -3l-1 -2l-1 -3l-1 -3l-1 -1
l-1 -3l-1 -2l-1 -3l-1 -2l-4 -7l-1 -2l-3 -6l-1 -2l-1 -1l-1 -2l-1 -2l-2 -3l-1 -1l-2 -4v-1l-1 -2l-1 -1l-1 -2l-1 -2l-1 -1l-1 -1l-1 -1l-1 -1l-1 -2l-1 -1l-3 -6l-1 -1l-1 -1l-1 -2l-1 -1h-1l-1 -1l-1 -2l-1 -1l-2 -2l-1 -2l-1 -1l-1 -1l-1 -1l-1 -1l-1 -1l-1 -1l-1 -2
l-1 -1h-1l-1 -1l-1 -1l-1 -1l-1 -1l-1 -1v-1l-2 -1l-1 -1l-1 -1l-1 -1l-1 -1l-1 -1l-1 -1l-1 -1l-1 -1l-2 -1l-1 -1l-1 -1l-2 -1l-1 -1l-1 -1l-1 -1l-1 -1l-1 -1l-2 -1l-2 -2v-1l-2 -1l-1 -1l-1 -1h-1l-2 -1l-1 -1l-1 -1l-2 -1l-1 -1l-1 -1l-2 -1l-1 -1l-2 -1l-1 -1l-2 -1
l-2 -2l-2 -1l-2 -1l-1 -1l-1 -1l-2 -1l-1 -1h-1l-4 -2l-1 -1l-2 -1l-2 -1l-2 -1l-2 -1l-1 -1l-2 -1l-2 -1l-2 -1l-2 -1l-2 -1l-3 -1l-2 -1l-1 -1l-2 -1h-2l-3 -1l-2 -1l-3 -1l-2 -1l-3 -1l-2 -1l-3 -1l-3 -1l-3 -1l-2 -1l-3 -1l-3 -1l-4 -1l-3 -1l-3 -1l-4 -1l-4 -1l-7 -1
l-6 -1h-5l-7 -1l-8 -1l-8 -1l-17 -1h-20l-17 1l-8 1l-8 1l-6 1h-6l-6 1l-7 1l-4 1l-4 1l-3 1l-4 1l-6 2l-3 1l-3 1l-2 1l-3 1l-2 1l-3 1l-3 1l-2 1l-3 1l-2 1h-2l-3 1l-2 1l-2 1l-2 1l-1 1l-2 1l-3 1l-1 1l-2 1l-2 1l-2 1l-2 1l-2 1l-2 1l-2 1l-1 1l-4 2l-1 1l-2 1h-2l-1 1
l-2 1l-1 1l-1 1l-1 1l-1 1l-2 1l-1 1l-2 1l-1 1l-1 1l-2 1l-1 1l-2 1l-1 1l-1 1l-1 1l-2 1l-1 1h-1l-2 1l-1 1l-2 2l-1 1l-2 1l-1 1l-1 1l-1 1v1l-1 1l-1 1l-2 1l-1 1l-1 1h-1l-1 1l-1 1l-1 1l-1 1l-1 1l-1 1l-2 2l-1 1l-2 1l-1 1l-1 1l-1 1l-1 1l-1 1l-1 1l-1 1l-1 1l-1 1
l-1 1l-1 1l-1 1l-1 2l-1 1l-1 2l-1 2l-1 1l-1 1l-1 1l-1 1l-1 1l-1 1l-1 2l-1 1l-1 1l-1 2l-1 1l-1 2l-1 1l-1 2l-1 2l-1 1l-2 3l-1 1l-2 4l-1 1l-1 2l-1 2l-1 1l-2 3l-1 2l-1 2v2l-1 2l-1 1l-1 3l-1 1l-1 2l-2 4l-1 2l-1 2l-1 2l-1 3l-1 1l-1 3l-1 2l-2 6l-1 3l-2 5l-1 3
l-1 4l-1 3l-1 4l-1 3l-1 4l-1 5l-1 5l-1 5l-1 6l-1 7l-1 11v35l1 10l1 8l1 6l1 6l1 4l1 5l1 4l1 3l1 4l1 3l1 3l1 3l1 4l1 2l1 2l1 3l1 3l1 3l1 2l1 2l1 3l1 1l1 3l1 2l2 4l1 2l1 2l2 3l1 2l1 4l1 2l1 2l1 1l1 2l2 3l1 1l2 4l1 1l1 2l1 1l1 2l1 2l1 1l1 2h1l1 1l1 2l1 1l1 2
l1 1l1 1l1 2l1 1l1 1l1 1l1 2l1 1l2 1l1 2l1 1l1 1v1l1 1l1 1l1 1l1 2l1 1l1 1l1 1l1 1l1 1l1 1l1 1h1l1 1l1 1l1 1l1 1l1 1l1 1l1 1l1 1l1 1l1 1l1 1l1 1l1 1l2 1l1 1l1 1l1 1l1 1l1 1h2l1 1v1l1 1l1 1l2 1l1 1l1 1l1 1l2 1l1 1l1 1l2 1l1 1l2 1l1 1l2 1l1 1l2 1h1l2 1l1 1
l2 1l1 1l2 1l2 1l1 1l1 1l2 1l1 1l2 1l2 1l2 1l1 1l2 1l2 1l2 1l2 1h2l2 1l2 1l2 1l2 1l3 1l1 1l2 1l2 1l3 1l2 1l3 1h2l3 1l3 1l1 1l3 1l3 1l4 1l6 2l3 1l4 1l4 1l4 1l3 1l5 1l5 1l5 1l7 1l7 1h8l14 1h28l13 -1h9l7 -1l7 -1l5 -1l4 -1l5 -1l5 -1l4 -1l4 -1l3 -1l3 -1l3 -1
l4 -1l2 -1l3 -1l3 -1l2 -1l3 -1l3 -1l2 -1h3l2 -1l3 -1l2 -1l2 -1l2 -1l2 -1l2 -1l2 -1l2 -1l2 -1l2 -1l2 -1l2 -1l2 -1l2 -1l2 -1l1 -1h2l2 -1l2 -1v-1l2 -1l2 -1l1 -1l2 -1l1 -1l2 -1l1 -1l2 -1l1 -1l2 -1l1 -1l2 -1l1 -1l2 -1l1 -1h2l1 -1l1 -1l2 -1l1 -1l1 -1l2 -1v-1
l1 -1l1 -1l1 -1l2 -1l2 -2l1 -1l1 -1l1 -1l2 -1l1 -1l1 -1h1l2 -2l1 -1l1 -1l1 -1l1 -1l1 -1l1 -1l1 -1l2 -2l1 -1l1 -1l1 -1l1 -1l1 -1l1 -1h1l1 -1l1 -1l1 -1v-2l1 -1l1 -1l1 -1l1 -1l1 -1l1 -2l1 -1l1 -1l1 -1l1 -2h1l1 -1l1 -2l1 -1l1 -1l1 -2l1 -1l1 -2l1 -1l1 -2l1 -1
l1 -2l1 -1l1 -1l1 -1l1 -2l1 -1l1 -2l1 -1l2 -4l1 -1l1 -2l1 -1l1 -2l2 -4l1 -1l4 -10l1 -2l2 -4l1 -2l1 -3l1 -2l1 -3l1 -1l1 -3l1 -2l2 -6l1 -3l2 -5l1 -4l1 -3l1 -4l1 -3l1 -4l1 -4l1 -5l1 -5l1 -6l1 -8l1 -9v-40h-1zM905 -78l-1 -6l-1 -2l-1 -3l-3 -6l-1 -1l-1 -2l-1 -1
l-1 -2l-1 -1h-1l-1 -1l-2 -1l-2 -1l-2 -1h-10l-2 1l-2 1l-1 1l-1 1h-1l-1 1l-1 1l-1 2l-1 3v5l1 3l1 1l1 2l1 1l1 1l1 1l2 4v6l-1 2l-1 1l-1 1l-1 1l-1 1l-1 1l-1 1l-1 1l-1 1l-2 2l-1 1l-1 1l-1 1l-1 1l-1 1l-1 1l-1 1l-1 1l-1 1l-1 1l-1 1l-1 1l-1 1l-1 1l-2 1l-2 2l-1 1
l-1 1l-1 1l-1 1l-1 1l-1 1l-1 1l-2 1l-1 1l-1 1l-1 1l-1 1l-1 1l-1 1l-1 1l-2 2l-2 1l-1 1l-1 1l-1 1l-1 1v1l-1 1h-2l-1 1l-1 1l-1 2l-1 1l-1 1l-1 1l-1 1l-1 1l-1 1l-1 1l-1 1l-1 1l-1 1l-1 1l-1 1l-1 1l-1 1h-1l-2 1l-1 1l-2 2l-1 1l-1 1l-1 1l-1 1l-1 1l-1 1l-1 1l-2 2
l-1 1l-1 1v1l-1 1l-1 1l-2 1l-1 1l-1 1l-1 1l-2 1l-1 1l-1 1l-1 1l-1 1l-1 1l-2 2l-1 1l-1 1l-1 1l-1 1l-1 1l-1 1h-1l-1 1l-1 1l-1 1l-1 1l-1 1l-1 1l-1 1l-1 1l-1 1l-2 1l-1 1l-1 1l-1 1l-1 1l-1 1l-1 1l-1 1l-1 2l-1 1l-1 2v8l1 3l1 1l1 2l1 1l2 1l1 1l2 1l3 1h9l1 -1
l2 -1l2 -1l2 -2l1 -1l1 -1l1 -1l1 -1l1 -1l1 -1l1 -1l1 -1l1 -1l2 -1h1l1 -1l1 -1l1 -1l1 -1l1 -1l1 -1l1 -1l1 -1l2 -1l1 -1l1 -1l1 -1l1 -1l1 -1l1 -1l1 -1l1 -1v-1h1l1 -1l1 -1l1 -1l1 -1l1 -1l1 -1l2 -2l1 -1l1 -1l1 -1l1 -1l1 -1l2 -1l1 -2l1 -1l1 -1h1l1 -1l1 -1l1 -1
l1 -1l1 -1l1 -1l1 -1l2 -2l1 -1l1 -1l1 -1l1 -1l1 -1l2 -1l1 -1v-1l1 -1h1l1 -1l1 -1l1 -1l1 -1l2 -2l1 -1l1 -1l1 -1l1 -1l1 -1l1 -1l1 -1l1 -1l1 -1l2 -2l1 -1h1l2 -1l1 -1l1 -1l1 -1l1 -1l2 -2l1 -1l1 -1l2 -1l1 -1l1 -1l1 -1v-1l1 -1l1 -1l2 -1l1 -1l1 -1l1 -1l1 -1
l1 -1l1 -1l1 -1l1 -1l1 -1l1 -1l2 -1l1 -1l1 -1l1 -1l1 -1l1 -1l1 -1l1 -1l1 -1l1 -1l1 -1l1 -1l1 -2l1 -1l4 -8l1 -2l1 -3l1 -5v-8h-1zM571 567l-1 1l-1 1l-2 2h-1l-2 1l-1 1l-1 1l-2 1l-1 1l-1 1l-2 1l-1 1l-2 1l-1 1l-2 1l-1 1l-2 1l-1 1l-2 1l-1 1l-2 1l-2 1l-2 1l-2 1
l-2 1l-2 1l-1 1l-2 1l-2 1l-2 1l-2 1l-2 1l-3 1l-2 1l-2 1l-2 1l-2 1l-2 1l-6 2h-2l-3 1l-3 1l-3 1l-3 1l-4 1l-3 1l-7 2l-5 1l-5 1l-6 1l-7 1l-17 1h-30l-18 -1l-6 -1l-6 -1l-5 -1l-5 -1l-4 -1l-4 -1l-2 -1l-4 -1l-3 -1l-3 -1l-3 -1l-2 -1h-3l-3 -1l-2 -1l-3 -1l-2 -1
l-2 -1l-2 -1l-2 -1l-2 -1l-2 -1l-2 -1l-2 -1l-2 -1l-2 -1l-1 -1l-1 -1l-1 -1l-1 -1l-2 -3l-1 -4v-7l1 -4l1 -1l1 -1l1 -2l1 -1l1 -1l2 -1l1 -1l2 -1l3 -1h11l2 1l2 1l2 1l2 1l2 1l2 1l2 1l3 1l2 1l3 1l3 1h2l3 1l2 1l3 1l4 1l4 1l4 1l4 1l5 1l6 1l5 1l9 1h34l9 -1l6 -1l5 -1
l5 -1l5 -1l4 -1l3 -1l4 -1l3 -1l2 -1l3 -1h3l2 -1l3 -1l2 -1l3 -1l2 -1l2 -1l2 -1l2 -1l2 -1l2 -1l2 -1l1 -1l1 -1l2 -1l2 -1l2 -1l1 -1l2 -1l2 -1h1l2 -1l1 -1l2 -1l1 -1l2 -1l1 -1l1 -1l2 -1l1 -1l1 -1l2 -1l2 -2l1 -1l2 -1l3 -1h11l3 1l2 1l1 1l2 1l1 1l1 1l1 1l2 4l1 3
v9l-1 2z" />
    <glyph glyph-name="uniE618" unicode="&#xe618;" 
d="M940 9l-141 191q105 116 105 271q0 111 -55.5 205t-152 149t-209.5 55t-209.5 -55t-152 -149t-55.5 -205t55.5 -205t152 -148.5t209.5 -54.5q80 0 154 29l143 -194q16 -21 42 -25t48 11l52 37q21 15 25.5 41t-11.5 47zM479.5 185q-117.5 0 -201 83.5t-83.5 201t83.5 201
t201 83.5t200.5 -83.5t83 -201t-83 -201t-200.5 -83.5z" />
    <glyph glyph-name="uniE619" unicode="&#xe619;" 
d="M771 259q43 -41 47 -46q69 -68 174 -173q31 -31 32 -70.5t-28 -68.5q-29 -30 -69 -28.5t-72 32.5q-171 172 -209 210q-11 11 -25 3q-91 -50 -191.5 -53t-184.5 35t-148 115t-87 179q-25 110 11 216.5t120.5 181t197.5 96.5q87 17 172.5 -4t152 -70t111.5 -124.5
t54 -163.5q14 -135 -52 -253q-4 -5 -5 -8zM415 192q121 1 205.5 85.5t84 204t-86 203.5t-205.5 83q-119 -1 -202 -86.5t-82 -205.5q0 -116 85 -200.5t201 -83.5zM193 481q0 63 33 116t84 80.5t106 24.5v-15v-46q-74 -6 -115.5 -51t-45.5 -109h-62z" />
    <glyph glyph-name="uniE61A" unicode="&#xe61a;" horiz-adv-x="1000" 
d="M833 754h-382h-121h-133q-1 0 -4 -0.5t-9.5 -2t-12 -5t-10 -11t-4.5 -17.5v-136v-125v-537q0 -17 11.5 -28.5t28.5 -11.5h108l193 1l335 -1q17 0 28.5 11.5t11.5 28.5v795q0 16 -11.5 27.5t-28.5 11.5zM276 -81h-39v796h39v-796zM794 276l-79 79l-80 -79v438h159v-438z
" />
    <glyph glyph-name="uniE61B" unicode="&#xe61b;" horiz-adv-x="1000" 
d="M0 800h1000v-1000h-1000v1000zM778 578h-556q-23 0 -39 -16.5t-16 -39.5t16 -39t39 -16h556q23 0 39 16t16 39t-16 39.5t-39 16.5zM778 356h-556q-23 0 -39 -16.5t-16 -39.5t16 -39.5t39 -16.5h556q23 0 39 16.5t16 39.5t-16 39.5t-39 16.5zM778 133h-556q-23 0 -39 -16
t-16 -39t16 -39.5t39 -16.5h556q23 0 39 16.5t16 39.5t-16 39t-39 16zM778 133z" />
    <glyph glyph-name="uniE61C" unicode="&#xe61c;" 
d="M310 590q0 44 -5 51t-39 7q-18 0 -31 -17t-13 -41v-583q0 -24 13 -41t31 -17q33 0 38.5 7.5t5.5 50.5v583zM744 648q24 0 41 -17t17 -41v-583q0 -24 -17 -41t-41 -17h-347q-43 0 -50.5 7.5t-7.5 50.5v583q0 44 7.5 51t50.5 7h347zM681 582q0 12 -8.5 20.5t-20.5 8.5h-90
q-12 0 -20.5 -8.5t-8.5 -20.5v-296q5 -29 20 -29q8 0 27.5 43.5t26.5 43.5q8 0 31.5 -43.5t28.5 -43.5t8 7t5 15l1 7v296z" />
    <glyph glyph-name="uniE61D" unicode="&#xe61d;" 
d="M356 404v-1v1zM368 407l-12 -4v-1q3 2 6 3l4 1zM831 313q0 3 -3 18.5t-4 19.5t-4 17.5t-5 18.5t-6 16.5t-8 18t-9.5 16.5t-12 18.5t-14.5 17.5q0 -34 -2.5 -59t-5 -42.5t-9.5 -30.5t-11.5 -19.5t-16.5 -12t-18 -7.5t-22 -6q12 22 11 40q2 47 3.5 87.5t-15 85t-54.5 83.5
q0 -11 1 -36.5t0.5 -38.5t-7 -32t-20.5 -34q-7 56 -34.5 106t-73.5 109q-8 7 -26 25.5t-28 28.5t-28 25t-35 26q5 -13 14.5 -35t15 -39t6.5 -33q9 -31 10 -37q12 -62 0.5 -125t-39.5 -146q-48 -91 -65 -120q-5 -10 -6 -11q-1 6 -3 15.5t-5 37.5t-2.5 53.5t7 56.5t19.5 54
q-1 -1 -3 -1.5t-5.5 -2t-6.5 -3.5q0 1 -1 1l-2 -2q-15 -7 -29.5 -16.5t-33.5 -27t-32.5 -42.5t-22.5 -56.5t-7 -75.5t17 -94q21 -121 95 -196q13 -17 37 -38q19 -18 39 -31l12 -8q28 -17 56.5 -28.5t65.5 -16t73 3.5t78 35t80 73q21 22 37 47q0 1 1 1v1q44 69 59 159
q19 76 -2 188zM566 -152q-42 -10 -80 -0.5t-70 29t-56 42t-37 38t-13 16.5q136 -118 235 -109q21 2 21 4q23 -10 0 -20zM598.5 -133q-11.5 0 -11.5 12q0 5 3.5 8t8.5 3q11 0 11 -11.5t-11.5 -11.5z" />
    <glyph glyph-name="uniE61E" unicode="&#xe61e;" 
d="M570 528h242v-244h-242v244zM570 224h242v-244h-242v244zM241 224h242v-244h-242v244zM175 292h308v310h-308v-310zM223 554h212v-213h-212v213zM917 812h-810q-44 0 -75 -31t-31 -75v-812q0 -44 31 -75t75 -31h810q43 0 74 31t31 75v812q0 44 -31 75t-74 31zM959 -106
q0 -17 -12.5 -29.5t-29.5 -12.5h-810q-17 0 -29.5 12.5t-12.5 29.5v812q0 17 12.5 29.5t29.5 12.5h810q17 0 29.5 -12.5t12.5 -29.5v-812z" />
    <glyph glyph-name="uniE61F" unicode="&#xe61f;" 
d="M896 633v-720q0 -16 -11.5 -27.5t-28.5 -11.5h-688q-16 0 -27.5 11.5t-11.5 27.5v720q0 16 11.5 27.5t27.5 11.5h136l37 -83h-130v-627h598v627h-126l35 83h138q17 0 28.5 -11.5t11.5 -27.5zM725 409q0 4 -3 7t-7 3h-235q-4 0 -7.5 -3t-3.5 -7v-22q0 -4 3.5 -7t7.5 -3
h235q4 0 7 3t3 7v22zM257 498v-115q0 -7 6 -7h116q6 0 6 7v115q0 6 -6 6h-116q-6 0 -6 -6zM725 237q0 5 -3 8t-7 3h-235q-4 0 -7.5 -3t-3.5 -8v-21q0 -5 3.5 -8t7.5 -3h235q4 0 7 3t3 8v21zM257 327v-116q0 -6 6 -6h116q6 0 6 6v116q0 6 -6 6h-116q-6 0 -6 -6zM725 67
q0 5 -3 8t-7 3h-235q-4 0 -7.5 -3t-3.5 -8v-21q0 -4 3.5 -7.5t7.5 -3.5h235q4 0 7 3.5t3 7.5v21zM257 157v-116q0 -6 6 -6h116q6 0 6 6v116q0 6 -6 6h-116q-6 0 -6 -6zM672 675h-77q-7 22 -29.5 36t-52 14t-52.5 -14t-30 -36h-79q-4 0 -7 -3t-3 -7l21 -67q0 -4 3 -7.5
t8 -3.5h276q5 0 8 3.5t3 7.5l21 67q0 4 -3 7t-7 3z" />
    <glyph glyph-name="uniE620" unicode="&#xe620;" 
d="M923 201v0v552q0 31 -21.5 52t-52.5 21h-673q-30 0 -51.5 -21t-21.5 -52v-736q0 -30 21.5 -51.5t51.5 -21.5h499zM673 34l-1 127q1 19 11.5 31t27.5 12h2l124 -1zM176 7q-4 0 -7 3t-3 7v736q0 5 3 8t7 3h673q5 0 8 -3t3 -8v-488l-144 2h-5q-43 0 -71.5 -29.5t-30.5 -75.5
v-1l2 -154h-435zM312 561l385 1q9 0 18.5 10t9.5 22t-9.5 21.5t-18.5 9.5l-385 -1q-9 0 -18.5 -9t-9.5 -21t10 -22.5t18 -10.5zM312 398l385 1q9 0 18.5 9.5t9.5 22t-9.5 22t-18.5 9.5l-385 -1q-9 0 -18.5 -9t-9.5 -21.5t10 -22.5t18 -10zM527 289h-216q-11 0 -19 -9t-8 -22
t8 -22.5t19 -9.5h216q11 0 19 9.5t8 22.5t-8 22t-19 9z" />
    <glyph glyph-name="uniE621" unicode="&#xe621;" 
d="M590 1q-7 0 -12.5 5t-5.5 13v213q0 8 5.5 13t12.5 5h214q7 0 12 -5t5 -12.5t-5 -13t-12 -5.5h-196v-195q0 -8 -5.5 -13t-12.5 -5zM590 1h-368q-7 0 -12 5t-5 13v730q0 8 5 13t12 5h582q7 0 12 -5t5 -13v-517q0 -7 -5 -12l-213 -214q-6 -5 -13 -5zM240 36h343l203 204v491
h-546v-695zM552 596h-210q-7 0 -12 5.5t-5 13t5 12.5t12 5h210q7 0 12 -5t5 -12.5t-5 -13t-12 -5.5zM689 510h-347q-7 0 -12 5.5t-5 13t5 12.5t12 5h347q8 0 13 -5t5 -12.5t-5 -13t-13 -5.5zM689 424h-347q-7 0 -12 5.5t-5 13t5 12.5t12 5h347q8 0 13 -5t5 -12.5t-5 -13
t-13 -5.5zM488 338h-146q-7 0 -12 5.5t-5 13t5 12.5t12 5h146q7 0 12.5 -5t5.5 -12.5t-5.5 -13t-12.5 -5.5z" />
    <glyph glyph-name="uniE622" unicode="&#xe622;" 
d="M992 -64h-32v384q0 27 -19 45.5t-46 18.5h-127q-27 0 -45.5 -19t-18.5 -45v-384h-64v895q0 27 -19 45.5t-46 18.5h-127q-27 0 -45.5 -18.5t-18.5 -45.5v-895h-64v640q0 26 -19 45t-46 19h-126q-27 0 -46 -19t-19 -45v-640h-32q-13 0 -22.5 -9.5t-9.5 -22.5t9.5 -22.5
t22.5 -9.5h960q13 0 22 9.5t9 22.5t-9 22.5t-22 9.5zM992 -64z" />
    <glyph glyph-name="uniE623" unicode="&#xe623;" 
d="M906 371l-91 274q-41 -24 -75 -51.5t-53 -49t-32.5 -41t-18 -29.5t-4.5 -12q-75 34 -66 284l5 82q-76 -31 -132.5 -69.5t-87 -76.5t-49 -78.5t-21.5 -76t-1.5 -69t7.5 -57.5t9.5 -41t1.5 -20q-36 14 -63 31t-43 34t-26.5 34.5t-14.5 32.5t-5.5 26.5t-1.5 17.5l1 7
q-61 -160 -46 -276t89 -187.5t181.5 -100.5t228.5 -14q84 11 147.5 38.5t103.5 67.5t60 90.5t19 108.5t-22 121z" />
    <glyph glyph-name="uniE624" unicode="&#xe624;" 
d="M767 530h222v-658h-222v658zM33 676h220v-804h-220v804zM401 896h220v-1024h-220v1024z" />
    <glyph glyph-name="uniE625" unicode="&#xe625;" 
d="M336 -77q-22 46 -29.5 85.5t-1.5 72.5t18 57.5t32 53.5q23 34 39 71.5t21 58.5l4 20q2 -2 4.5 -5.5t9.5 -17t10 -28t5.5 -37.5t-3.5 -46q47 54 64.5 132.5t8.5 123.5q60 -41 102.5 -106t62 -137.5t13.5 -150.5t-40 -144q79 46 133.5 98.5t80 104t34.5 106t0 104t-26.5 97
t-41 86t-48 70.5t-43.5 52t-31 28q11 -25 14.5 -55.5t-4.5 -61.5t-30 -49q-15 57 -37 106.5t-45.5 83t-48.5 60.5t-47 42.5t-39.5 25.5t-28.5 14l-10 4q27 -173 -172 -420q-3 52 -10 83.5t-29 70.5q-3 -45 -25 -95.5t-48.5 -103.5t-35.5 -95q-22 -111 26.5 -194t191.5 -165z
" />
    <glyph glyph-name="uniE626" unicode="&#xe626;" 
d="M265 540h493q16 0 28 12.5t12 29.5t-12 29t-28 12h-493q-16 0 -28 -12t-12 -29t12 -29.5t28 -12.5v0zM265 152h212q16 0 28 12t12 29t-12 29.5t-28 12.5h-212q-16 0 -28 -12.5t-12 -29.5t12 -29t28 -12v0zM265 346h493q16 0 28 12t12 29.5t-12 29.5t-28 12h-493
q-16 0 -28 -12t-12 -29.5t12 -29.5t28 -12v0zM762 828h-500q-80 0 -136.5 -58.5t-56.5 -141.5v-490q0 -82 56.5 -140.5t136.5 -58.5h213q16 0 28 12t12 29.5t-12 29.5t-28 12h-213q-47 0 -79.5 34t-32.5 82v490q0 48 32.5 82t79.5 34h499q47 0 79.5 -34t32.5 -82v-348h-78
q-72 0 -123.5 -53t-51.5 -127v-115q0 -15 10 -26q11 -20 34 -20h44q29 0 75 36q35 27 73 68q38 39 64 75q34 47 34 76v434q0 83 -56.5 141.5t-135.5 58.5v0zM798 101q-64 -67 -93 -79h-4v78q0 40 27.5 68.5t66.5 28.5h78q-12 -31 -75 -96v0zM798 101z" />
    <glyph glyph-name="uniE627" unicode="&#xe627;" 
d="M841 285q-31 69 -46.5 127.5t-16.5 91.5t5.5 60t11 33.5t7.5 10.5q2 2 0.5 5t-4.5 1q-6 -2 -17.5 -8t-37 -24.5t-45 -41t-32 -59.5t-7.5 -77q-13 11 -27 25.5t-37 43.5t-40.5 59t-33 71t-20.5 82.5t3.5 91t33.5 97.5q2 2 0 4t-5 1q-7 -3 -20 -10t-43 -31t-52 -54
q-101 -137 -31 -344q24 -90 -40 -172q12 43 11 88q-4 119 -105 177q-2 2 -4 0.5t-2 -4.5q27 -150 -23 -210q-41 -49 -63.5 -116.5t-5.5 -131.5q32 -115 196 -174q40 -12 84 -20q3 -1 4 2.5t-2 4.5q-18 8 -33 18t-28 25.5t-19.5 34t-4.5 44t14 55.5q47 102 26 153
q64 -36 52 -97q0 -2 2 -3.5t4 0t7.5 6.5t17 17.5t22 27.5t20.5 36t14.5 42.5t2.5 48.5t-14 53q11 -7 21.5 -15.5t23.5 -26t20.5 -38.5t6.5 -54t-13 -70q-7 -25 0.5 -50t14 -33.5t12.5 -14.5q2 -2 4.5 0t1.5 5q-2 4 -3.5 10t-3.5 23t0 31.5t12 32.5t28 30q-11 -68 15 -99
q43 -52 34 -106q-6 -42 -49 -70q-3 -2 -1.5 -5t4.5 -2q155 51 204 159q46 98 -11 233v0z" />
    <glyph glyph-name="uniE628" unicode="&#xe628;" 
d="M512 107l306 334h-612z" />
    <glyph glyph-name="uniE629" unicode="&#xe629;" 
d="M741 505h-13h-377h-12q-14 0 -20 -12t2 -23l196 -208l5 -6l4 -4q5 -4 13 -4h1v0h1q7 0 12 4q3 2 4 4l5 6l196 208q8 11 2.5 23t-19.5 12z" />
    <glyph glyph-name="uniE62A" unicode="&#xe62a;" 
d="M511 -132q13 14 35.5 39t79.5 95.5t100.5 133.5t79.5 138.5t36 126.5q0 89 -44.5 165.5t-120.5 121t-166 44.5q-89 0 -165 -44.5t-120 -121t-44 -165.5q0 -140 246 -437zM511 513q45 0 77 -33t32 -79q0 -44 -32 -76.5t-77 -32.5t-78 32.5t-33 76.5q0 45 33 78.5t78 33.5z
" />
    <glyph glyph-name="uniE62B" unicode="&#xe62b;" 
d="M819 400q0 127 -90 217t-217.5 90t-217.5 -90t-90 -217q0 -81 40 -152l1 -1q7 -13 16 -26l197 -305q2 -4 6 -8.5t17.5 -12.5t29.5 -8q3 0 9.5 0.5t20.5 7.5t23 20l197 305q9 13 17 27l1 1q40 71 40 152zM510.5 272q-52.5 0 -90 37.5t-37.5 90.5t37.5 90.5t90 37.5
t90 -37.5t37.5 -90.5t-37.5 -90.5t-90 -37.5z" />
    <glyph glyph-name="uniE62C" unicode="&#xe62c;" 
d="M512 759q-93 0 -172 -46t-125 -125t-46 -171.5t48 -173.5q34 -57 278 -389q6 -10 17 -10q12 0 17 10q245 332 279 389q47 81 47 173.5t-46 171.5t-125 125t-172 46zM512 302q-47 0 -80.5 33.5t-33.5 81t33.5 81t81 33.5t81 -33.5t33.5 -81t-33.5 -81t-81.5 -33.5z
M512 302z" />
    <glyph glyph-name="uniE62D" unicode="&#xe62d;" 
d="M512 -98q-11 14 -30 39.5t-67 96t-84.5 133t-67 133.5t-30.5 114q0 116 82 198t197 82t197 -82t82 -198q0 -43 -29 -112.5t-70 -137t-82 -129t-69.5 -100t-28.5 -37.5zM509 537q-49 0 -83.5 -35t-34.5 -84.5t34.5 -84t83.5 -34.5t84 34.5t35 84t-35 84.5t-84 35z" />
    <glyph glyph-name="uniE62E" unicode="&#xe62e;" 
d="M512 748q-133 0 -226.5 -92t-93.5 -222q0 -66 33 -150t80 -157t94 -137t80 -101l33 -37q13 14 34.5 39t77 97.5t97.5 140t76.5 153.5t34.5 152q0 130 -93.5 222t-226.5 92zM512 322q-44 0 -75.5 31t-31.5 75t31.5 75t75.5 31t75.5 -31t31.5 -75t-31.5 -75t-75.5 -31z" />
    <glyph glyph-name="uniE62F" unicode="&#xe62f;" 
d="M512.5 832q-88.5 0 -164 -43.5t-119 -118.5t-43.5 -164q0 -74 33.5 -160t81.5 -156t96 -129t82 -92l33 -33q7 6 18.5 17.5t45.5 48.5t65 75t68.5 93t64.5 107.5t45.5 113.5t18.5 115q0 89 -43.5 164t-118.5 118.5t-163.5 43.5zM512.5 343q-67.5 0 -115.5 48t-48 115.5
t48 115t115.5 47.5t115 -47.5t47.5 -115t-47.5 -115.5t-115 -48z" />
    <glyph glyph-name="uniE630" unicode="&#xe630;" 
d="M802 463q-11 1 -37.5 -2.5t-60 -8t-49.5 -5.5q2 10 23 86q2 9 7.5 26.5t8 26.5t6.5 27t3.5 28.5t-0.5 29.5q-4 31 -22.5 51.5t-40.5 25t-44.5 -8.5t-33.5 -43l-42 -102q-3 -6 -10 -18l-10 -16q-3 -4 -9 -13t-10 -13l-11 -12q-8 -7 -16 -13.5t-19.5 -15.5t-26.5 -20
q-57 -41 -95 -72q-18 -15 -18 -32v-351q0 -19 15 -30q37 -27 145 -47.5t184 -20.5q33 0 44.5 0.5t31 5t37.5 14.5q12 6 21.5 20.5t11.5 16.5q20 19 28.5 44.5t10 45.5t5.5 23q23 24 33.5 53t12.5 54t3 28q10 22 13 34.5t4.5 24.5t5.5 24q22 81 -5 116t-94 39zM169 432
q-24 0 -41.5 -17t-17.5 -42v-359q0 -24 17.5 -41.5t42 -17.5t41.5 17.5t17 41.5v359q0 25 -17 42t-42 17v0zM169 432z" />
    <glyph glyph-name="uniE631" unicode="&#xe631;" 
d="M800 451q0 -11 -5 -22t-13 -19t-19 -13t-23 -5h-21q24 0 41.5 -16t17.5 -39.5t-17.5 -40.5t-41.5 -17h-22q25 0 42.5 -17t17.5 -41q0 -12 -7 -22.5t-18 -18.5t-26 -12.5t-31 -4.5q25 0 40 -17t15 -41q0 -15 -8.5 -25.5t-21.5 -17.5t-27.5 -10.5t-26.5 -3.5h-309
q-24 0 -44.5 8t-35.5 22.5t-23.5 34t-8.5 45.5v225q0 15 1 30t5.5 28t14 23.5t24.5 17.5q15 6 34 17.5t39 28t39.5 36.5t35 42.5t24.5 47t9 49.5q1 22 6 37t13.5 24t18.5 13t20 4q27 0 45 -16t26 -53q1 -32 -4 -67q-5 -30 -16 -66.5t-34 -71.5h214q25 0 42.5 -16t17.5 -40z
M800 451z" />
    <glyph glyph-name="uniE632" unicode="&#xe632;" 
d="M887 472h-239q19 70 25.5 127.5t3 93.5t-15 63.5t-23 41t-26 22t-19.5 10t-9 1.5q-23 0 -36 -8.5t-15.5 -18t-3.5 -21t-2 -13.5q0 -46 -18.5 -94t-44.5 -83t-52 -63.5t-44 -42.5l-19 -15v-473q0 -21 18 -36.5t37 -21.5t34 -6h359q9 0 19 9.5t17 22.5t13 26t9 22l3 9
q39 134 61.5 232t24.5 128l3 31q0 18 -6.5 30t-15 17t-17.5 8t-15 3zM887 472zM252 472h-143q-13 0 -20.5 -7t-8.5 -14l-1 -8l29 -477q0 -14 7.5 -21.5t15.5 -8.5l8 -1h123q12 0 18.5 5t6.5 10l1 5v481q0 16 -9 25.5t-18 9.5zM252 472z" />
    <glyph glyph-name="uniE633" unicode="&#xe633;" 
d="M818 421q0 -12 -5 -23t-13.5 -19t-20 -13t-24.5 -5h-23q27 0 45 -16.5t18 -40.5t-18.5 -41.5t-44.5 -17.5h-23q27 0 45.5 -17t18.5 -41q0 -12 -7 -23t-19.5 -19t-28 -12.5t-32.5 -4.5q26 0 42 -17.5t16 -41.5q0 -15 -9 -26t-22.5 -18t-29.5 -10.5t-28 -3.5h-141h-189
q-26 0 -47.5 8t-37.5 22.5t-25 35t-9 45.5v230q0 15 1 30t5.5 28t14.5 24t27 18q15 6 35 18t42 28.5t42.5 37t37 43.5t26.5 48t10 50q0 23 5.5 38t14.5 24.5t20 13.5t22 4q28 0 47.5 -16.5t27.5 -54.5q1 -32 -4 -68q-5 -31 -17 -68t-36 -73h228q26 0 44.5 -16t18.5 -40z
M818 421z" />
    <glyph glyph-name="uniE634" unicode="&#xe634;" 
d="M962 296q18 -23 14 -51q-5 -29 -42 -55q-12 -8 -15 -22.5t5 -27.5q19 -31 11 -62q-7 -29 -43 -51q-20 -12 -17 -34q2 -38 -27 -70q-48 -51 -164 -51h-2q-70 0 -132.5 8.5t-91.5 16.5t-75 23q-81 26 -127 28v481q20 7 37 17q53 32 100 82q89 95 118 226q3 14 7 39
q7 48 16 69t31 28q54 17 90 -10q47 -35 48 -141q-6 -72 -26 -121q-14 -33 5.5 -62.5t53.5 -29.5h145q29 0 53 -14q16 -9 30.5 -27t19.5 -41q12 -48 -24 -105q-15 -22 2 -43zM37 -42v449q0 10 10 10h136v-469h-136q-10 0 -10 10z" />
    <glyph glyph-name="uniE635" unicode="&#xe635;" 
d="M511 583l-413 -399h234l-2 -327h361v328l240 3zM67 746h889v-131h-889v131z" />
    <glyph glyph-name="uniE636" unicode="&#xe636;" 
d="M511 588l-449 -405h258l-62 -330h507l-62 331l258 3zM63 748h895v-128h-895v128zM63 748z" />
    <glyph glyph-name="uniE637" unicode="&#xe637;" 
d="M136 195h161v-323h430v323h161l-376 432zM82 896h860v-108h-860v108z" />
    <glyph glyph-name="uniE638" unicode="&#xe638;" horiz-adv-x="1040" 
d="M517 853l-517 -277v-704h1024v704zM768 183l-251 137l-261 -140v85l261 140l251 -137v-85z" />
    <glyph glyph-name="uniE639" unicode="&#xe639;" 
d="M1010 839h-996q-6 0 -10 4t-4 10v29q0 6 4 10t10 4h996q6 0 10 -4t4 -10v-29q0 -6 -4 -10t-10 -4zM474 699q4 4 10 6v6q0 6 4 10t10 4h28q6 0 10 -4t4 -10v-6q6 -2 10 -6l448 -447q8 -9 8 -20.5t-8.5 -20t-20 -8.5t-20.5 8l-417 417v-742q0 -6 -4 -10t-10 -4h-28
q-6 0 -10 4t-4 10v742l-417 -417q-9 -8 -20.5 -8t-20 8.5t-8.5 20t8 20.5z" />
  </font>
</defs>
</svg>
